<?xml version="1.0" standalone="no"?><!DOCTYPE svg PUBLIC "-//W3C//DTD SVG 1.1//EN" "http://www.w3.org/Graphics/SVG/1.1/DTD/svg11.dtd"><svg t="1748607014630" class="icon" viewBox="0 0 1032 1024" version="1.1" xmlns="http://www.w3.org/2000/svg" p-id="4820" xmlns:xlink="http://www.w3.org/1999/xlink" width="201.5625" height="200"><path d="M1006.933333 128c-59.733333-25.6-162.133333-59.733333-256-68.266667-85.333333-8.533333-170.666667 0-238.933333 51.2C452.266667 59.733333 358.4 51.2 273.066667 59.733333c-93.866667 8.533333-196.266667 42.666667-256 68.266667-8.533333 8.533333-17.066667 17.066667-17.066667 34.133333v699.733334c0 17.066667 17.066667 34.133333 34.133333 34.133333h17.066667c59.733333-25.6 145.066667-59.733333 238.933333-68.266667 93.866667-8.533333 162.133333 8.533333 204.8 59.733334 8.533333 17.066667 34.133333 17.066667 42.666667 8.533333l8.533333-8.533333c42.666667-51.2 119.466667-68.266667 204.8-59.733334 85.333333 8.533333 179.2 42.666667 238.933334 68.266667 17.066667 8.533333 34.133333 0 42.666666-17.066667V162.133333c-8.533333-17.066667-17.066667-25.6-25.6-34.133333zM477.866667 793.6C418.133333 759.466667 341.333333 759.466667 273.066667 768c-76.8 0-153.6 25.6-204.8 51.2V179.2c59.733333-25.6 136.533333-51.2 213.333333-59.733333 85.333333-8.533333 153.6 0 196.266667 51.2v622.933333z m477.866666 25.6c-51.2-25.6-128-51.2-204.8-51.2-68.266667-8.533333-145.066667-8.533333-204.8 25.6V170.666667c42.666667-42.666667 110.933333-59.733333 196.266667-51.2 76.8 8.533333 162.133333 34.133333 213.333333 59.733333v640z" p-id="4821"></path></svg>